<svg xmlns="http://www.w3.org/2000/svg" width="840" height="760" font-family="-apple-system,Segoe UI,Helvetica,Arial,sans-serif">
<rect width="840" height="760" fill="white"/>
<text x="86" y="34" font-size="20" font-weight="700" fill="#111">Portfolio key-rate DV01 (where the interest-rate risk sits)</text>
<text x="86" y="56" font-size="13" fill="#666">P&amp;L per +1bp shift of each curve tenor  -  $10mm 5Y payer + $5mm 10Y receiver</text>
<line x1="86" y1="676.0" x2="794" y2="676.0" stroke="#eee"/>
<text x="78" y="680.0" text-anchor="end" font-size="11" fill="#555">-5,422</text>
<line x1="86" y1="528.0" x2="794" y2="528.0" stroke="#eee"/>
<text x="78" y="532.0" text-anchor="end" font-size="11" fill="#555">-2,711</text>
<line x1="86" y1="380.0" x2="794" y2="380.0" stroke="#eee"/>
<text x="78" y="384.0" text-anchor="end" font-size="11" fill="#555">0</text>
<line x1="86" y1="232.0" x2="794" y2="232.0" stroke="#eee"/>
<text x="78" y="236.0" text-anchor="end" font-size="11" fill="#555">2,711</text>
<line x1="86" y1="84.0" x2="794" y2="84.0" stroke="#eee"/>
<text x="78" y="88.0" text-anchor="end" font-size="11" fill="#555">5,422</text>
<line x1="86" y1="84" x2="86" y2="676" stroke="#333"/>
<line x1="86" y1="380.0" x2="794" y2="380.0" stroke="#333" stroke-width="1.5"/>
<text x="24" y="380.0" text-anchor="middle" font-size="12.5" fill="#333" transform="rotate(-90 24 380.0)">DV01 ($ per 1bp)</text>
<rect x="108.1" y="379.6" width="44.2" height="0.4" rx="2" fill="#2ca02c" opacity="0.85"/>
<text x="130.2" y="373.6" text-anchor="middle" font-size="10.5" fill="#333">7</text>
<text x="130.2" y="694.0" text-anchor="middle" font-size="11" fill="#555">0.5y</text>
<rect x="196.6" y="378.9" width="44.2" height="1.1" rx="2" fill="#2ca02c" opacity="0.85"/>
<text x="218.8" y="372.9" text-anchor="middle" font-size="10.5" fill="#333">20</text>
<text x="218.8" y="694.0" text-anchor="middle" font-size="11" fill="#555">1y</text>
<rect x="285.1" y="377.3" width="44.2" height="2.7" rx="2" fill="#2ca02c" opacity="0.85"/>
<text x="307.2" y="371.3" text-anchor="middle" font-size="10.5" fill="#333">50</text>
<text x="307.2" y="694.0" text-anchor="middle" font-size="11" fill="#555">2y</text>
<rect x="373.6" y="374.2" width="44.2" height="5.8" rx="2" fill="#2ca02c" opacity="0.85"/>
<text x="395.8" y="368.2" text-anchor="middle" font-size="10.5" fill="#333">105</text>
<text x="395.8" y="694.0" text-anchor="middle" font-size="11" fill="#555">3y</text>
<rect x="462.1" y="160.7" width="44.2" height="219.3" rx="2" fill="#2ca02c" opacity="0.85"/>
<text x="484.2" y="154.7" text-anchor="middle" font-size="10.5" fill="#333">4,016</text>
<text x="484.2" y="694.0" text-anchor="middle" font-size="11" fill="#555">5y</text>
<rect x="550.6" y="380.0" width="44.2" height="15.2" rx="2" fill="#d62728" opacity="0.85"/>
<text x="572.8" y="409.2" text-anchor="middle" font-size="10.5" fill="#333">-278</text>
<text x="572.8" y="694.0" text-anchor="middle" font-size="11" fill="#555">7y</text>
<rect x="639.1" y="380.0" width="44.2" height="183.1" rx="2" fill="#d62728" opacity="0.85"/>
<text x="661.2" y="577.1" text-anchor="middle" font-size="10.5" fill="#333">-3,354</text>
<text x="661.2" y="694.0" text-anchor="middle" font-size="11" fill="#555">10y</text>
<rect x="727.6" y="380.0" width="44.2" height="0.0" rx="2" fill="#d62728" opacity="0.85"/>
<text x="749.8" y="394.0" text-anchor="middle" font-size="10.5" fill="#333">-0</text>
<text x="749.8" y="694.0" text-anchor="middle" font-size="11" fill="#555">30y</text>
<line x1="484.2" y1="160.7" x2="496.2" y2="106.7" stroke="#888" stroke-width="1" stroke-dasharray="2,2"/>
<circle cx="484.2" cy="160.7" r="3" fill="#111"/>
<rect x="496.2" y="93.7" width="141.6" height="38.0" rx="4" fill="#fffbe6" stroke="#e0c200"/>
<text x="502.2" y="105.7" font-size="11.5" fill="#5a4a00">Long the front</text>
<text x="502.2" y="120.7" font-size="11.5" fill="#5a4a00">(the 5Y payer leg)</text>
<line x1="749.8" y1="380.0" x2="599.8" y2="416.0" stroke="#888" stroke-width="1" stroke-dasharray="2,2"/>
<circle cx="749.8" cy="380.0" r="3" fill="#111"/>
<rect x="599.8" y="403.0" width="141.6" height="38.0" rx="4" fill="#fffbe6" stroke="#e0c200"/>
<text x="605.8" y="415.0" font-size="11.5" fill="#5a4a00">Short the back</text>
<text x="605.8" y="430.0" font-size="11.5" fill="#5a4a00">(the 10Y receiver)</text>
<rect x="598" y="88" width="190" height="26" rx="5" fill="#eef6ee" stroke="#2ca02c"/>
<text x="608" y="105" font-size="12.5" fill="#1a5">Net parallel DV01: 565 $/bp</text>
</svg>