<?xml version="1.0" encoding="utf-8" standalone="no"?>
<!DOCTYPE svg PUBLIC "-//W3C//DTD SVG 1.1//EN"
  "http://www.w3.org/Graphics/SVG/1.1/DTD/svg11.dtd">
<svg xmlns:xlink="http://www.w3.org/1999/xlink" width="864pt" height="540pt" viewBox="0 0 864 540" xmlns="http://www.w3.org/2000/svg" version="1.1">
 <metadata>
  <rdf:RDF xmlns:dc="http://purl.org/dc/elements/1.1/" xmlns:cc="http://creativecommons.org/ns#" xmlns:rdf="http://www.w3.org/1999/02/22-rdf-syntax-ns#">
   <cc:Work>
    <dc:type rdf:resource="http://purl.org/dc/dcmitype/StillImage"/>
    <dc:format>image/svg+xml</dc:format>
    <dc:creator>
     <cc:Agent>
      <dc:title>Matplotlib v3.8.2, https://matplotlib.org/</dc:title>
     </cc:Agent>
    </dc:creator>
   </cc:Work>
  </rdf:RDF>
 </metadata>
 <defs>
  <style type="text/css">*{stroke-linejoin: round; stroke-linecap: butt}</style>
 </defs>
 <g id="figure_1">
  <g id="patch_1">
   <path d="M 0 540 
L 864 540 
L 864 0 
L 0 0 
z
" style="fill: #ffffff"/>
  </g>
  <g id="axes_1">
   <g id="patch_2">
    <path d="M 86.4 461.7 
L 691.2 461.7 
L 691.2 75.6 
L 86.4 75.6 
z
" style="fill: #ffffff"/>
   </g>
   <g id="matplotlib.axis_1">
    <g id="xtick_1">
     <g id="line2d_1">
      <path d="M 174.498299 461.7 
L 174.498299 75.6 
" clip-path="url(#pf16d906174)" style="fill: none; stroke: #d9d9d9; stroke-width: 0.7; stroke-linecap: round"/>
     </g>
     <g id="line2d_2">
      <defs>
       <path id="m309ffe0a6c" d="M 0 0 
L 0 3.5 
" style="stroke: #1a1a1a; stroke-width: 0.8"/>
      </defs>
      <g>
       <use xlink:href="#m309ffe0a6c" x="174.498299" y="461.7" style="fill: #1a1a1a; stroke: #1a1a1a; stroke-width: 0.8"/>
      </g>
     </g>
     <g id="text_1">
      <text style="fill: #1a1a1a; font: 10px 'DejaVu Sans', sans-serif; text-anchor: middle" x="174.498299" y="476.298437" transform="rotate(-0 174.498299 476.298437)">-$4,000</text>
     </g>
    </g>
    <g id="xtick_2">
     <g id="line2d_3">
      <path d="M 281.649149 461.7 
L 281.649149 75.6 
" clip-path="url(#pf16d906174)" style="fill: none; stroke: #d9d9d9; stroke-width: 0.7; stroke-linecap: round"/>
     </g>
     <g id="line2d_4">
      <g>
       <use xlink:href="#m309ffe0a6c" x="281.649149" y="461.7" style="fill: #1a1a1a; stroke: #1a1a1a; stroke-width: 0.8"/>
      </g>
     </g>
     <g id="text_2">
      <text style="fill: #1a1a1a; font: 10px 'DejaVu Sans', sans-serif; text-anchor: middle" x="281.649149" y="476.298437" transform="rotate(-0 281.649149 476.298437)">-$2,000</text>
     </g>
    </g>
    <g id="xtick_3">
     <g id="line2d_5">
      <path d="M 388.8 461.7 
L 388.8 75.6 
" clip-path="url(#pf16d906174)" style="fill: none; stroke: #d9d9d9; stroke-width: 0.7; stroke-linecap: round"/>
     </g>
     <g id="line2d_6">
      <g>
       <use xlink:href="#m309ffe0a6c" x="388.8" y="461.7" style="fill: #1a1a1a; stroke: #1a1a1a; stroke-width: 0.8"/>
      </g>
     </g>
     <g id="text_3">
      <text style="fill: #1a1a1a; font: 10px 'DejaVu Sans', sans-serif; text-anchor: middle" x="388.8" y="476.298437" transform="rotate(-0 388.8 476.298437)">$0</text>
     </g>
    </g>
    <g id="xtick_4">
     <g id="line2d_7">
      <path d="M 495.950851 461.7 
L 495.950851 75.6 
" clip-path="url(#pf16d906174)" style="fill: none; stroke: #d9d9d9; stroke-width: 0.7; stroke-linecap: round"/>
     </g>
     <g id="line2d_8">
      <g>
       <use xlink:href="#m309ffe0a6c" x="495.950851" y="461.7" style="fill: #1a1a1a; stroke: #1a1a1a; stroke-width: 0.8"/>
      </g>
     </g>
     <g id="text_4">
      <text style="fill: #1a1a1a; font: 10px 'DejaVu Sans', sans-serif; text-anchor: middle" x="495.950851" y="476.298437" transform="rotate(-0 495.950851 476.298437)">$2,000</text>
     </g>
    </g>
    <g id="xtick_5">
     <g id="line2d_9">
      <path d="M 603.101701 461.7 
L 603.101701 75.6 
" clip-path="url(#pf16d906174)" style="fill: none; stroke: #d9d9d9; stroke-width: 0.7; stroke-linecap: round"/>
     </g>
     <g id="line2d_10">
      <g>
       <use xlink:href="#m309ffe0a6c" x="603.101701" y="461.7" style="fill: #1a1a1a; stroke: #1a1a1a; stroke-width: 0.8"/>
      </g>
     </g>
     <g id="text_5">
      <text style="fill: #1a1a1a; font: 10px 'DejaVu Sans', sans-serif; text-anchor: middle" x="603.101701" y="476.298437" transform="rotate(-0 603.101701 476.298437)">$4,000</text>
     </g>
    </g>
    <g id="text_6">
     <text style="fill: #1a1a1a; font: 12px 'DejaVu Sans', sans-serif; text-anchor: middle" x="388.8" y="491.49625" transform="rotate(-0 388.8 491.49625)">Key-rate DV01 (USD per basis point)</text>
    </g>
   </g>
   <g id="matplotlib.axis_2">
    <g id="ytick_1">
     <g id="line2d_11">
      <defs>
       <path id="m8f9b5db37a" d="M 0 0 
L -3.5 0 
" style="stroke: #1a1a1a; stroke-width: 0.8"/>
      </defs>
      <g>
       <use xlink:href="#m8f9b5db37a" x="86.4" y="101.772029" style="fill: #1a1a1a; stroke: #1a1a1a; stroke-width: 0.8"/>
      </g>
     </g>
     <g id="text_7">
      <text style="fill: #1a1a1a; font: 10px 'DejaVu Sans', sans-serif; text-anchor: end" x="79.4" y="105.571247" transform="rotate(-0 79.4 105.571247)">1M</text>
     </g>
    </g>
    <g id="ytick_2">
     <g id="line2d_12">
      <g>
       <use xlink:href="#m8f9b5db37a" x="86.4" y="129.585024" style="fill: #1a1a1a; stroke: #1a1a1a; stroke-width: 0.8"/>
      </g>
     </g>
     <g id="text_8">
      <text style="fill: #1a1a1a; font: 10px 'DejaVu Sans', sans-serif; text-anchor: end" x="79.4" y="133.384243" transform="rotate(-0 79.4 133.384243)">2M</text>
     </g>
    </g>
    <g id="ytick_3">
     <g id="line2d_13">
      <g>
       <use xlink:href="#m8f9b5db37a" x="86.4" y="157.398019" style="fill: #1a1a1a; stroke: #1a1a1a; stroke-width: 0.8"/>
      </g>
     </g>
     <g id="text_9">
      <text style="fill: #1a1a1a; font: 10px 'DejaVu Sans', sans-serif; text-anchor: end" x="79.4" y="161.197238" transform="rotate(-0 79.4 161.197238)">3M</text>
     </g>
    </g>
    <g id="ytick_4">
     <g id="line2d_14">
      <g>
       <use xlink:href="#m8f9b5db37a" x="86.4" y="185.211014" style="fill: #1a1a1a; stroke: #1a1a1a; stroke-width: 0.8"/>
      </g>
     </g>
     <g id="text_10">
      <text style="fill: #1a1a1a; font: 10px 'DejaVu Sans', sans-serif; text-anchor: end" x="79.4" y="189.010233" transform="rotate(-0 79.4 189.010233)">4M</text>
     </g>
    </g>
    <g id="ytick_5">
     <g id="line2d_15">
      <g>
       <use xlink:href="#m8f9b5db37a" x="86.4" y="213.02401" style="fill: #1a1a1a; stroke: #1a1a1a; stroke-width: 0.8"/>
      </g>
     </g>
     <g id="text_11">
      <text style="fill: #1a1a1a; font: 10px 'DejaVu Sans', sans-serif; text-anchor: end" x="79.4" y="216.823228" transform="rotate(-0 79.4 216.823228)">6M</text>
     </g>
    </g>
    <g id="ytick_6">
     <g id="line2d_16">
      <g>
       <use xlink:href="#m8f9b5db37a" x="86.4" y="240.837005" style="fill: #1a1a1a; stroke: #1a1a1a; stroke-width: 0.8"/>
      </g>
     </g>
     <g id="text_12">
      <text style="fill: #1a1a1a; font: 10px 'DejaVu Sans', sans-serif; text-anchor: end" x="79.4" y="244.636224" transform="rotate(-0 79.4 244.636224)">1Y</text>
     </g>
    </g>
    <g id="ytick_7">
     <g id="line2d_17">
      <g>
       <use xlink:href="#m8f9b5db37a" x="86.4" y="268.65" style="fill: #1a1a1a; stroke: #1a1a1a; stroke-width: 0.8"/>
      </g>
     </g>
     <g id="text_13">
      <text style="fill: #1a1a1a; font: 10px 'DejaVu Sans', sans-serif; text-anchor: end" x="79.4" y="272.449219" transform="rotate(-0 79.4 272.449219)">2Y</text>
     </g>
    </g>
    <g id="ytick_8">
     <g id="line2d_18">
      <g>
       <use xlink:href="#m8f9b5db37a" x="86.4" y="296.462995" style="fill: #1a1a1a; stroke: #1a1a1a; stroke-width: 0.8"/>
      </g>
     </g>
     <g id="text_14">
      <text style="fill: #1a1a1a; font: 10px 'DejaVu Sans', sans-serif; text-anchor: end" x="79.4" y="300.262214" transform="rotate(-0 79.4 300.262214)">3Y</text>
     </g>
    </g>
    <g id="ytick_9">
     <g id="line2d_19">
      <g>
       <use xlink:href="#m8f9b5db37a" x="86.4" y="324.27599" style="fill: #1a1a1a; stroke: #1a1a1a; stroke-width: 0.8"/>
      </g>
     </g>
     <g id="text_15">
      <text style="fill: #1a1a1a; font: 10px 'DejaVu Sans', sans-serif; text-anchor: end" x="79.4" y="328.075209" transform="rotate(-0 79.4 328.075209)">5Y</text>
     </g>
    </g>
    <g id="ytick_10">
     <g id="line2d_20">
      <g>
       <use xlink:href="#m8f9b5db37a" x="86.4" y="352.088986" style="fill: #1a1a1a; stroke: #1a1a1a; stroke-width: 0.8"/>
      </g>
     </g>
     <g id="text_16">
      <text style="fill: #1a1a1a; font: 10px 'DejaVu Sans', sans-serif; text-anchor: end" x="79.4" y="355.888204" transform="rotate(-0 79.4 355.888204)">7Y</text>
     </g>
    </g>
    <g id="ytick_11">
     <g id="line2d_21">
      <g>
       <use xlink:href="#m8f9b5db37a" x="86.4" y="379.901981" style="fill: #1a1a1a; stroke: #1a1a1a; stroke-width: 0.8"/>
      </g>
     </g>
     <g id="text_17">
      <text style="fill: #1a1a1a; font: 10px 'DejaVu Sans', sans-serif; text-anchor: end" x="79.4" y="383.7012" transform="rotate(-0 79.4 383.7012)">10Y</text>
     </g>
    </g>
    <g id="ytick_12">
     <g id="line2d_22">
      <g>
       <use xlink:href="#m8f9b5db37a" x="86.4" y="407.714976" style="fill: #1a1a1a; stroke: #1a1a1a; stroke-width: 0.8"/>
      </g>
     </g>
     <g id="text_18">
      <text style="fill: #1a1a1a; font: 10px 'DejaVu Sans', sans-serif; text-anchor: end" x="79.4" y="411.514195" transform="rotate(-0 79.4 411.514195)">20Y</text>
     </g>
    </g>
    <g id="ytick_13">
     <g id="line2d_23">
      <g>
       <use xlink:href="#m8f9b5db37a" x="86.4" y="435.527971" style="fill: #1a1a1a; stroke: #1a1a1a; stroke-width: 0.8"/>
      </g>
     </g>
     <g id="text_19">
      <text style="fill: #1a1a1a; font: 10px 'DejaVu Sans', sans-serif; text-anchor: end" x="79.4" y="439.32719" transform="rotate(-0 79.4 439.32719)">30Y</text>
     </g>
    </g>
    <g id="text_20">
     <text style="fill: #1a1a1a; font: 12px 'DejaVu Sans', sans-serif; text-anchor: middle" x="54.071562" y="268.65" transform="rotate(-90 54.071562 268.65)">Curve node</text>
    </g>
   </g>
   <g id="patch_3">
    <path d="M 388.8 93.15 
L 388.8 93.15 
L 388.8 110.394057 
L 388.8 110.394057 
z
" clip-path="url(#pf16d906174)" style="fill: #0072b2; stroke: #ffffff; stroke-width: 0.6; stroke-linejoin: miter"/>
   </g>
   <g id="patch_4">
    <path d="M 388.8 120.962995 
L 388.8 120.962995 
L 388.8 138.207052 
L 388.8 138.207052 
z
" clip-path="url(#pf16d906174)" style="fill: #0072b2; stroke: #ffffff; stroke-width: 0.6; stroke-linejoin: miter"/>
   </g>
   <g id="patch_5">
    <path d="M 388.8 148.77599 
L 388.8 148.77599 
L 388.8 166.020048 
L 388.8 166.020048 
z
" clip-path="url(#pf16d906174)" style="fill: #0072b2; stroke: #ffffff; stroke-width: 0.6; stroke-linejoin: miter"/>
   </g>
   <g id="patch_6">
    <path d="M 388.8 176.588986 
L 388.8 176.588986 
L 388.8 193.833043 
L 388.8 193.833043 
z
" clip-path="url(#pf16d906174)" style="fill: #0072b2; stroke: #ffffff; stroke-width: 0.6; stroke-linejoin: miter"/>
   </g>
   <g id="patch_7">
    <path d="M 388.8 204.401981 
L 389.028365 204.401981 
L 389.028365 221.646038 
L 388.8 221.646038 
z
" clip-path="url(#pf16d906174)" style="fill: #0072b2; stroke: #ffffff; stroke-width: 0.6; stroke-linejoin: miter"/>
   </g>
   <g id="patch_8">
    <path d="M 388.8 232.214976 
L 389.477349 232.214976 
L 389.477349 249.459033 
L 388.8 249.459033 
z
" clip-path="url(#pf16d906174)" style="fill: #0072b2; stroke: #ffffff; stroke-width: 0.6; stroke-linejoin: miter"/>
   </g>
   <g id="patch_9">
    <path d="M 388.8 260.027971 
L 390.548852 260.027971 
L 390.548852 277.272029 
L 388.8 277.272029 
z
" clip-path="url(#pf16d906174)" style="fill: #0072b2; stroke: #ffffff; stroke-width: 0.6; stroke-linejoin: miter"/>
   </g>
   <g id="patch_10">
    <path d="M 388.8 287.840967 
L 392.551191 287.840967 
L 392.551191 305.085024 
L 388.8 305.085024 
z
" clip-path="url(#pf16d906174)" style="fill: #0072b2; stroke: #ffffff; stroke-width: 0.6; stroke-linejoin: miter"/>
   </g>
   <g id="patch_11">
    <path d="M 388.8 315.653962 
L 612.8 315.653962 
L 612.8 332.898019 
L 388.8 332.898019 
z
" clip-path="url(#pf16d906174)" style="fill: #0072b2; stroke: #ffffff; stroke-width: 0.6; stroke-linejoin: miter"/>
   </g>
   <g id="patch_12">
    <path d="M 388.8 343.466957 
L 373.021871 343.466957 
L 373.021871 360.711014 
L 388.8 360.711014 
z
" clip-path="url(#pf16d906174)" style="fill: url(#he46759ad61); stroke: #ffffff; stroke-width: 0.6; stroke-linejoin: miter"/>
   </g>
   <g id="patch_13">
    <path d="M 388.8 371.279952 
L 198.255244 371.279952 
L 198.255244 388.52401 
L 388.8 388.52401 
z
" clip-path="url(#pf16d906174)" style="fill: url(#he46759ad61); stroke: #ffffff; stroke-width: 0.6; stroke-linejoin: miter"/>
   </g>
   <g id="patch_14">
    <path d="M 388.8 399.092948 
L 388.8 399.092948 
L 388.8 416.337005 
L 388.8 416.337005 
z
" clip-path="url(#pf16d906174)" style="fill: #0072b2; stroke: #ffffff; stroke-width: 0.6; stroke-linejoin: miter"/>
   </g>
   <g id="patch_15">
    <path d="M 388.8 426.905943 
L 388.8 426.905943 
L 388.8 444.15 
L 388.8 444.15 
z
" clip-path="url(#pf16d906174)" style="fill: #0072b2; stroke: #ffffff; stroke-width: 0.6; stroke-linejoin: miter"/>
   </g>
   <g id="line2d_24">
    <path d="M 388.8 461.7 
L 388.8 75.6 
" clip-path="url(#pf16d906174)" style="fill: none; stroke: #1a1a1a; stroke-linecap: round"/>
   </g>
   <g id="line2d_25">
    <path d="M 412.882872 461.7 
L 412.882872 75.6 
" clip-path="url(#pf16d906174)" style="fill: none; stroke-dasharray: 5.92,2.56; stroke-dashoffset: 0; stroke: #e69f00; stroke-width: 1.6"/>
   </g>
   <g id="patch_16">
    <path d="M 86.4 461.7 
L 86.4 75.6 
" style="fill: none; stroke: #6b6b6b; stroke-width: 0.8; stroke-linejoin: miter; stroke-linecap: square"/>
   </g>
   <g id="patch_17">
    <path d="M 86.4 461.7 
L 691.2 461.7 
" style="fill: none; stroke: #6b6b6b; stroke-width: 0.8; stroke-linejoin: miter; stroke-linecap: square"/>
   </g>
   <g id="text_21">
    <text style="fill: #e69f00; font: 600 9px 'DejaVu Sans', sans-serif; text-anchor: start" x="418.882872" y="454.699206" transform="rotate(-0 418.882872 454.699206)">Parallel DV01 $450/bp</text>
   </g>
   <g id="text_22">
    <text style="fill: #1a1a1a; font: 9px 'DejaVu Sans', sans-serif; text-anchor: start" x="620.8" y="326.759428" transform="rotate(-0 620.8 326.759428)">$4,181</text>
   </g>
   <g id="text_23">
    <text style="fill: #1a1a1a; font: 9px 'DejaVu Sans', sans-serif; text-anchor: end" x="365.021871" y="354.572423" transform="rotate(-0 365.021871 354.572423)">-$295</text>
   </g>
   <g id="text_24">
    <text style="fill: #1a1a1a; font: 9px 'DejaVu Sans', sans-serif; text-anchor: end" x="190.255244" y="382.385418" transform="rotate(-0 190.255244 382.385418)">-$3,557</text>
   </g>
   <g id="patch_18">
    <path d="M 289.335809 176.057025 
Q 349.244899 199.37736 409.153988 222.697695 
" style="fill: none; stroke: #6b6b6b; stroke-width: 0.9; stroke-linecap: round"/>
   </g>
   <g id="text_25">
    <g id="patch_19">
     <path d="M 115.565331 174.981207 
L 367.237674 174.981207 
Q 370.387674 174.981207 370.387674 171.831207 
L 370.387674 142.964832 
Q 370.387674 139.814832 367.237674 139.814832 
L 115.565331 139.814832 
Q 112.415331 139.814832 112.415331 142.964832 
L 112.415331 171.831207 
Q 112.415331 174.981207 115.565331 174.981207 
z
" style="fill: #ffffff; stroke: #d9d9d9; stroke-width: 0.7; stroke-linejoin: miter"/>
    </g>
    <text style="fill: #1a1a1a; font: 9px 'DejaVu Sans', sans-serif" transform="translate(115.565331 149.803425)">Buckets sum to $449.51/bp against a parallel</text>
    <text style="fill: #1a1a1a; font: 9px 'DejaVu Sans', sans-serif" transform="translate(115.565331 159.881457)">DV01 of $449.51/bp — a residual of 6.0e-06%.</text>
    <text style="fill: #1a1a1a; font: 9px 'DejaVu Sans', sans-serif" transform="translate(115.565331 169.959488)">The gap is the second-order cross term between nodes.</text>
   </g>
   <g id="text_26">
    <text style="fill: #6b6b6b; font: italic 9px 'DejaVu Sans', sans-serif; text-anchor: start" x="93.6576" y="448.1865" transform="rotate(-0 93.6576 448.1865)">10 of 13 buckets carry under $100/bp and are left unlabelled</text>
   </g>
  </g>
  <g id="text_27">
   <text style="fill: #1a1a1a; font: 600 15px 'DejaVu Sans', sans-serif; text-anchor: start" x="86.4" y="24.3" transform="rotate(-0 86.4 24.3)">The risk is a 5s10s curve position, not a duration view</text>
  </g>
  <g id="text_28">
   <text style="fill: #6b6b6b; font: 11px 'DejaVu Sans', sans-serif; text-anchor: start" x="86.4" y="44.82" transform="rotate(-0 86.4 44.82)">Key-rate DV01 by curve node, 2025-12-31 · $10mm 5Y payer at 4.00% and $5mm 10Y receiver at 4.50% ·</text>
  </g>
  <g id="text_29">
   <text style="fill: #6b6b6b; font: 11px 'DejaVu Sans', sans-serif; text-anchor: start" x="86.4" y="58.86" transform="rotate(-0 86.4 58.86)">hatched bars lose when that tenor rises</text>
  </g>
  <g id="text_30">
   <text style="fill: #6b6b6b; font: italic 8px 'DejaVu Sans', sans-serif; text-anchor: start" x="86.4" y="529.2" transform="rotate(-0 86.4 529.2)">fi_report.</text>
  </g>
  <g id="text_31">
   <text style="fill: #6b6b6b; font: italic 8px 'DejaVu Sans', sans-serif; text-anchor: start" x="86.4" y="518.4" transform="rotate(-0 86.4 518.4)">Source: US Treasury par yield curve rates (CMT), 2025-12-31, from data/treasury_par_yields_2025.csv. Computed by</text>
  </g>
 </g>
 <defs>
  <clipPath id="pf16d906174">
   <rect x="86.4" y="75.6" width="604.8" height="386.1"/>
  </clipPath>
 </defs>
 <defs>
  <pattern id="he46759ad61" patternUnits="userSpaceOnUse" x="0" y="0" width="72" height="72">
   <rect x="0" y="0" width="73" height="73" fill="#d55e00"/>
   <path d="M -36 36 
L 36 -36 
M -32 40 
L 40 -32 
M -28 44 
L 44 -28 
M -24 48 
L 48 -24 
M -20 52 
L 52 -20 
M -16 56 
L 56 -16 
M -12 60 
L 60 -12 
M -8 64 
L 64 -8 
M -4 68 
L 68 -4 
M 0 72 
L 72 0 
M 4 76 
L 76 4 
M 8 80 
L 80 8 
M 12 84 
L 84 12 
M 16 88 
L 88 16 
M 20 92 
L 92 20 
M 24 96 
L 96 24 
M 28 100 
L 100 28 
M 32 104 
L 104 32 
M 36 108 
L 108 36 
" style="fill: #ffffff; stroke: #ffffff; stroke-width: 1.0; stroke-linecap: butt; stroke-linejoin: miter"/>
  </pattern>
 </defs>
</svg>
